<svg version="1.0" xmlns="http://www.w3.org/2000/svg" width="540px" height="540px" viewBox="0 0 540 540" preserveAspectRatio="xMidYMid meet">
 <g fill="#ffffff">
  <path d="M0 270 l0 -270 270 0 270 0 0 270 0 270 -270 0 -270 0 0 -270z m423.85 239.80 c6.70 -1.45 13.60 -4.25 18.25 -7.40 4.25 -2.90 9.10 -7.20 10.90 -9.65 1.10 -1.45 2.20 -2.80 2.45 -2.95 0.25 -0.20 1 -1.35 1.60 -2.70 0.65 -1.30 1.40 -2.55 1.70 -2.85 0.30 -0.25 0.95 -1.40 1.35 -2.50 0.45 -1.10 1.25 -3.10 1.80 -4.50 3.05 -7.60 3.60 -12.75 3.60 -35.35 l0 -19.40 18 0 c20.65 0 21.40 -0.10 24.60 -3.35 l2.15 -2.20 0.15 -45.85 c0.10 -32.55 0 -46.60 -0.40 -48.45 -0.65 -3 -2.80 -5.25 -5.85 -6.10 -1.15 -0.35 -9 -0.55 -20.25 -0.55 l-18.40 0 0 -33.60 c0 -36.85 -0.10 -37.95 -3 -46.45 -2 -5.90 -2.80 -7.55 -5.70 -11.95 -2.25 -3.40 -11.50 -13.50 -12.40 -13.50 -0.35 0 -3.60 -2.05 -4.70 -2.95 -1.75 -1.45 -6.85 -3.55 -12.70 -5.20 -3.75 -1.05 -3.90 -1.05 -77.10 -1.20 l-73.40 -0.20 0 -37.05 0 -37.05 3.40 0.30 c5.15 0.40 20 -1.60 23.05 -3.15 0.45 -0.20 2.85 -1 5.30 -1.75 2.50 -0.75 5.20 -1.65 6 -2 0.85 -0.35 3.55 -1.60 6.10 -2.70 2.50 -1.15 4.80 -2.05 5.05 -2.05 0.45 0 7 -3.45 8.60 -4.50 0.40 -0.25 2.05 -1.15 3.60 -2 6.50 -3.40 20.50 -13.40 26.90 -19.20 3.90 -3.55 15 -14.95 15 -15.45 0 -0.20 0.65 -1.10 1.50 -2 0.80 -0.90 1.50 -1.75 1.50 -1.95 0 -0.15 0.80 -1.50 1.75 -2.95 0.95 -1.50 1.75 -2.95 1.75 -3.25 0 -0.35 0.20 -0.70 0.50 -0.80 0.45 -0.15 1.25 -1.95 3.65 -8.40 0.65 -1.85 1 -4.10 1.05 -6.75 0.05 -3.95 0.05 -4.05 -2.30 -7.65 -1.40 -2.10 -2.95 -3.85 -3.75 -4.20 -0.80 -0.35 -1.55 -0.85 -1.75 -1.10 -0.50 -0.75 -5.20 -2.30 -9.40 -3.10 -4.40 -0.90 -15.95 -0.40 -18.75 0.75 -1.35 0.60 -7.60 2.10 -9.90 2.40 -1 0.15 -2 0.45 -2.15 0.70 -0.15 0.25 -0.80 0.45 -1.45 0.45 -0.65 0 -1.35 0.25 -1.50 0.50 -0.15 0.30 -0.70 0.50 -1.15 0.50 -0.45 0 -1.75 0.45 -2.85 1 -1.10 0.50 -4 1.80 -6.50 2.80 -4.70 1.90 -11.65 5.40 -17.25 8.60 -3.65 2.05 -15.10 9.75 -18.30 12.25 -1.15 0.85 -3.05 2.35 -4.25 3.25 -2.70 2.05 -18.45 17.65 -18.45 18.30 0 1.15 -1.75 2.30 -3.45 2.30 -1.60 0 -2.10 -0.30 -3.65 -2.40 -2.10 -2.70 -15.25 -15.85 -18 -17.95 -1 -0.75 -3.35 -2.50 -5.15 -3.90 -1.85 -1.35 -4.05 -3.10 -4.95 -3.80 -0.85 -0.75 -2.05 -1.45 -2.65 -1.65 -0.55 -0.20 -1.20 -0.65 -1.35 -1.05 -0.15 -0.40 -0.60 -0.75 -0.95 -0.75 -0.40 0 -1 -0.35 -1.35 -0.75 -0.35 -0.40 -1.55 -1.20 -2.70 -1.75 -1.10 -0.55 -2.70 -1.40 -3.55 -1.95 -2.25 -1.40 -17.65 -9.05 -20.50 -10.15 -18.30 -7.15 -32.30 -9.55 -43.10 -7.45 -4.55 0.85 -12.65 5.50 -12.65 7.25 0 0.25 -0.30 0.85 -0.65 1.25 -0.95 1.15 -2.35 5.85 -2.35 7.95 0 6.70 7.05 19.85 16 29.95 4.35 4.90 19.25 18.65 20.20 18.65 0.20 0 1.80 1.10 3.55 2.50 1.75 1.35 3.40 2.50 3.55 2.50 0.20 0 0.80 0.35 1.30 0.85 1.05 0.90 1.70 1.30 5.45 3.35 1.50 0.80 2.80 1.60 2.85 1.85 0.10 0.25 0.60 0.45 1.10 0.45 0.50 0 1 0.20 1.10 0.45 0.20 0.50 16 8.55 16.80 8.55 0.30 0 1.55 0.45 2.70 0.95 10.75 4.80 24.90 8.10 34.85 8.15 l6.15 0.05 -0.30 2.55 c-0.15 1.40 -0.30 18 -0.30 36.95 l0 34.35 -70.60 0.05 c-73.25 0 -78.50 0.15 -83.15 2.15 -5.95 2.60 -11.85 5.70 -14.20 7.55 -3.70 2.85 -10.80 10.20 -11.25 11.65 -0.20 0.60 -0.55 1.10 -0.80 1.10 -0.65 0 -4.85 8.95 -6.25 13.20 -2.60 8.10 -2.75 10.40 -2.75 46.10 l0 33.15 -19.65 0.15 -19.70 0.15 -1.70 1.30 c-0.95 0.75 -2.20 2.25 -2.80 3.45 l-1.15 2.10 0 44.90 c0 29.40 0.20 45.80 0.50 47.40 0.70 3.15 3.15 5.75 6.20 6.55 1.45 0.35 8.65 0.55 20.25 0.55 l18.05 0 0 19.65 c0 18.55 0.50 27.35 1.55 28.55 0.25 0.30 0.45 1.25 0.45 2.10 0 0.90 0.25 1.80 0.50 1.95 0.30 0.15 0.50 0.65 0.50 1.10 0 0.85 4.85 10.85 5.90 12.10 0.35 0.45 2.10 2.65 3.90 4.90 3.05 3.90 5.95 6.50 10.90 9.75 1.10 0.75 2.35 1.40 2.70 1.40 0.30 0 0.60 0.25 0.60 0.50 0 0.30 0.45 0.50 1 0.50 0.55 0 1 0.25 1 0.50 0 0.30 0.40 0.50 0.90 0.50 0.50 0 1.10 0.20 1.35 0.45 0.75 0.70 8.55 3.15 11.45 3.55 1.40 0.20 71.10 0.40 154.90 0.45 131.20 0.05 152.80 -0.05 155.75 -0.65z"/>
  <path d="M127.50 485.80 c-9.55 -1.55 -16.15 -4.85 -22.90 -11.40 -2.05 -1.95 -4.55 -4.75 -5.65 -6.20 -2.15 -2.95 -5.45 -9.40 -5.45 -10.75 0 -0.50 -0.20 -1.05 -0.50 -1.20 -0.25 -0.15 -0.50 -0.85 -0.50 -1.50 0 -0.65 -0.20 -1.30 -0.45 -1.45 -1.35 -0.85 -1.60 -12.50 -1.40 -60.55 0.20 -53 0.15 -51.80 3 -62.75 1.75 -6.65 3.45 -11.25 6.55 -17.40 3.35 -6.75 3.90 -7.75 4.70 -8.25 0.30 -0.20 0.60 -0.60 0.60 -0.85 0 -0.65 2.75 -4.60 3.95 -5.70 0.60 -0.55 1.05 -1.20 1.05 -1.55 0 -0.85 10.80 -11.60 15.15 -15.15 5.55 -4.50 13.75 -9.15 21.60 -12.40 0.85 -0.30 2.35 -0.95 3.40 -1.40 1.05 -0.45 2.55 -0.80 3.35 -0.80 0.80 0 1.55 -0.20 1.70 -0.40 0.30 -0.50 3.65 -1.25 10.65 -2.40 6.40 -1 24.80 -0.75 30.40 0.45 6.85 1.50 10.05 2.35 12.75 3.35 1.50 0.60 3.30 1.25 4 1.45 2.05 0.65 10.65 5.05 12.35 6.35 0.85 0.65 1.80 1.20 2.05 1.20 0.25 0 0.85 0.45 1.35 1 0.50 0.55 1.15 1 1.50 1 0.30 0 1.20 0.70 2 1.50 0.80 0.80 1.70 1.50 2 1.50 1 0 14.20 13.50 16.10 16.45 1 1.55 2.30 3.35 2.95 4.05 0.60 0.70 1.80 2.60 2.70 4.25 0.85 1.65 2.05 3.75 2.60 4.60 1.30 2.15 4.40 9.65 4.40 10.75 0 0.45 0.25 1 0.50 1.15 0.30 0.15 0.50 0.85 0.50 1.50 0 0.65 0.25 1.35 0.50 1.50 0.30 0.15 0.50 0.85 0.50 1.50 0 0.65 0.25 1.35 0.50 1.50 0.30 0.15 0.50 0.85 0.50 1.50 0 0.65 0.45 3.05 0.95 5.35 1 4.10 1.55 9.70 2.55 25.15 0.65 10.05 3.60 23.10 6.50 28.75 0.50 0.95 1.50 3.20 2.25 5 0.75 1.80 1.95 4.20 2.70 5.40 2.75 4.50 6.40 9.95 8.35 12.60 2.90 3.80 17.80 18 18.95 18 0.45 0 6.40 3.60 6.75 4.10 0.45 0.60 7.10 3.80 9.75 4.65 1.40 0.45 3.20 1.15 4 1.55 2.40 1.05 12.60 3.55 17.25 4.20 5.25 0.75 16.35 0.75 20.60 0 3.85 -0.65 11.30 -2.40 12.65 -3 0.55 -0.25 2.80 -1.05 5 -1.80 10.40 -3.55 24 -12.30 31.75 -20.50 3.70 -3.90 8 -9 8 -9.50 0 -0.20 0.60 -1 1.30 -1.75 1.50 -1.55 1.75 -1.95 4.40 -7 1.05 -2.05 2.10 -3.75 2.35 -3.85 0.25 -0.10 0.45 -0.50 0.45 -0.90 0 -0.40 0.85 -2.45 1.95 -4.60 1.05 -2.10 2.05 -4.45 2.25 -5.20 0.30 -1.20 0.55 -1.40 2.20 -1.40 l1.85 0 -0.10 28.20 c-0.05 15.50 -0.30 30.30 -0.60 32.90 -0.50 5.10 -2.65 13.10 -3.80 14.40 -0.40 0.45 -0.75 1.20 -0.75 1.65 0 0.45 -0.20 0.85 -0.50 0.85 -0.25 0 -0.50 0.45 -0.50 0.95 0 0.50 -0.35 1.05 -0.75 1.25 -0.40 0.15 -0.75 0.55 -0.75 0.85 0 0.30 -0.75 1.45 -1.60 2.50 -0.90 1.05 -2.20 2.60 -2.85 3.45 -1.05 1.45 -6.40 5.90 -8.80 7.35 -2.45 1.55 -6.70 3.50 -8.75 4.10 -1.25 0.35 -2.70 0.85 -3.25 1.10 -0.55 0.20 -2.25 0.55 -3.75 0.75 -1.50 0.15 -63.60 0.40 -138 0.45 -104.15 0.10 -136.10 0 -139 -0.45z m60.25 -91.50 c0.85 -0.35 2.35 -0.80 3.35 -1 1.05 -0.20 3.15 -1.10 4.75 -2.05 1.60 -0.95 3.45 -2 4.10 -2.35 2.30 -1.20 8.55 -6.80 8.55 -7.60 0 -0.35 0.70 -1.25 1.50 -2.05 0.85 -0.80 1.50 -1.70 1.50 -2 0 -0.25 0.55 -1.35 1.25 -2.35 0.70 -1 1.25 -2.20 1.25 -2.60 0 -0.40 0.20 -0.80 0.40 -0.90 0.20 -0.05 1.05 -2.15 1.85 -4.65 1.35 -4.10 1.50 -5.15 1.50 -11.25 0 -7.45 -0.35 -9.05 -3.65 -16.25 -2.90 -6.45 -10.65 -15.30 -15.10 -17.30 -1.05 -0.45 -2.05 -1.10 -2.20 -1.40 -0.20 -0.30 -0.80 -0.55 -1.30 -0.55 -0.50 0 -1 -0.15 -1.10 -0.40 -0.25 -0.65 -6.60 -2.55 -10.05 -3.05 -3.60 -0.50 -10.50 -0.25 -12.10 0.45 -0.55 0.25 -2.10 0.80 -3.50 1.25 -12.15 3.95 -21.90 14.85 -25.55 28.60 -1.20 4.50 -1.30 5.40 -1 11.10 0.15 3.40 0.45 6.45 0.70 6.75 0.25 0.30 0.70 1.55 1.05 2.80 1.65 5.75 8.35 16 11.90 18.25 0.75 0.50 1.95 1.40 2.65 2.05 2.90 2.65 12.25 6.55 17.50 7.25 3.50 0.45 9.80 0.05 11.75 -0.75z"/>
  <path d="M348.50 397.80 c-5.60 -1 -12.80 -3.80 -13.75 -5.30 -0.15 -0.25 -0.65 -0.50 -1.05 -0.50 -0.45 0 -1.30 -0.65 -2 -1.45 -0.70 -0.85 -1.95 -1.95 -2.85 -2.50 -2 -1.20 -6.35 -6.60 -7.85 -9.60 -0.55 -1.20 -1.35 -2.75 -1.75 -3.45 -4.45 -8.30 -5.30 -21.55 -2.10 -33.25 0.60 -2.20 1.20 -4.10 1.35 -4.25 0.45 -0.40 1.40 -2.15 2.65 -4.75 1.70 -3.45 4.95 -7.10 10.85 -12.15 2.30 -2 8.20 -4.90 12.25 -6 3.85 -1.05 5.60 -1.20 12.50 -1.20 7.60 -0.05 8.25 0.05 12.60 1.50 2.50 0.80 5.60 2.15 6.80 3 1.25 0.80 2.75 1.65 3.30 1.85 0.60 0.15 1.05 0.50 1.05 0.70 0 0.20 1.05 1.10 2.40 2 4.20 2.90 10.25 11.80 11.90 17.55 0.40 1.50 0.95 3.20 1.20 3.75 1.90 4.50 1.80 16.95 -0.20 24.60 -1.20 4.50 -4.10 10.95 -5.50 12.10 -0.45 0.40 -0.80 0.95 -0.80 1.25 0 0.70 -8.20 9.05 -9.80 9.95 -4.45 2.55 -9.40 4.85 -10.45 4.85 -0.70 0 -1.80 0.35 -2.45 0.75 -1.65 1.10 -13.35 1.45 -18.30 0.55z"/>
 </g>
 <g fill="#58bb2d">
  <path d="M111.70 511.50 c-2.90 -0.40 -10.70 -2.85 -11.45 -3.55 -0.25 -0.25 -0.85 -0.45 -1.35 -0.45 -0.50 0 -0.90 -0.25 -0.90 -0.55 0 -0.30 -0.35 -0.40 -0.75 -0.25 -0.45 0.15 -0.90 -0.05 -1.05 -0.45 -0.20 -0.40 -0.55 -0.75 -0.90 -0.75 -0.30 0 -1.50 -0.65 -2.60 -1.40 -4.95 -3.25 -7.85 -5.85 -10.90 -9.75 -1.80 -2.25 -3.55 -4.45 -3.90 -4.90 -1.05 -1.25 -5.90 -11.25 -5.90 -12.10 0 -0.45 -0.20 -0.95 -0.50 -1.10 -0.25 -0.15 -0.50 -1.05 -0.50 -1.95 0 -0.85 -0.20 -1.80 -0.45 -2.10 -1.05 -1.20 -1.55 -10 -1.55 -28.55 l0 -19.65 -18.05 0 c-11.60 0 -18.80 -0.20 -20.25 -0.55 -3.05 -0.80 -5.50 -3.40 -6.20 -6.55 -0.30 -1.60 -0.50 -18.45 -0.50 -48.90 l0 -46.40 1.15 -2.10 c0.60 -1.20 1.85 -2.70 2.80 -3.45 l1.70 -1.30 19.70 -0.15 19.65 -0.15 0 -33.15 c0 -35.70 0.15 -38 2.75 -46.10 1.40 -4.25 5.60 -13.20 6.25 -13.20 0.25 0 0.60 -0.50 0.80 -1.10 0.45 -1.45 7.55 -8.80 11.20 -11.65 2.90 -2.25 11.65 -6.90 13.15 -7.05 0.50 -0.05 1.15 -0.30 1.50 -0.65 0.30 -0.30 1.20 -0.55 2 -0.55 0.75 0 1.80 -0.20 2.25 -0.45 0.50 -0.25 2.35 -0.60 4.10 -0.70 1.80 -0.15 35.15 -0.30 74.10 -0.30 l70.90 -0.05 0.10 -35.35 0.15 -35.40 -6 -0.10 c-9.95 -0.15 -24.15 -3.55 -34.65 -8.20 -1.15 -0.50 -2.40 -0.95 -2.70 -0.95 -0.80 0 -16.60 -8.05 -16.80 -8.55 -0.10 -0.25 -0.60 -0.45 -1.10 -0.45 -0.50 0 -1 -0.20 -1.10 -0.45 -0.05 -0.25 -1.35 -1.05 -2.85 -1.85 -3.75 -2.05 -4.40 -2.45 -5.45 -3.35 -0.50 -0.50 -1.10 -0.85 -1.30 -0.85 -0.15 0 -1.80 -1.15 -3.55 -2.50 -1.75 -1.40 -3.35 -2.50 -3.55 -2.50 -0.95 0 -15.85 -13.75 -20.20 -18.65 -9.80 -11 -16 -23.20 -16 -31.45 0 -3.35 1.15 -8.05 2.35 -9.45 0.35 -0.40 0.65 -1 0.65 -1.25 0 -1 2.80 -3.15 6.25 -4.85 5.30 -2.60 6.40 -2.85 14.35 -3.20 10.15 -0.45 23.05 2.35 38.15 8.25 2.85 1.10 18.25 8.75 20.50 10.15 0.85 0.55 2.45 1.40 3.55 1.95 1.15 0.55 2.35 1.35 2.70 1.75 0.35 0.40 0.95 0.75 1.35 0.75 0.35 0 0.80 0.35 0.95 0.75 0.15 0.40 0.80 0.85 1.35 1.05 0.60 0.20 1.80 0.90 2.65 1.65 0.90 0.70 3.10 2.45 4.95 3.80 1.80 1.40 4.15 3.15 5.15 3.90 2.70 2.05 13.80 13.05 17 16.85 1.50 1.80 2.80 3.35 2.90 3.45 0.30 0.35 2.20 -1.55 2.20 -2.15 0 -0.70 15.50 -16.20 18.45 -18.40 1.20 -0.90 3.10 -2.40 4.25 -3.25 3.20 -2.50 14.65 -10.20 18.30 -12.25 5.60 -3.20 12.55 -6.70 17.25 -8.60 2.50 -1 5.40 -2.30 6.50 -2.80 1.10 -0.55 2.40 -1 2.85 -1 0.45 0 1 -0.25 1.15 -0.50 0.15 -0.30 0.80 -0.50 1.45 -0.50 0.60 0 1.30 -0.20 1.55 -0.45 0.30 -0.25 1.30 -0.60 2.25 -0.75 0.95 -0.10 3.40 -0.70 5.40 -1.25 2 -0.50 3.75 -1 3.85 -1 0.15 -0.05 0.50 -0.15 0.85 -0.30 3.35 -1.05 16.90 -1.45 21.40 -0.55 4.20 0.80 8.90 2.35 9.40 3.10 0.20 0.25 0.95 0.75 1.75 1.10 0.80 0.35 2.35 2.10 3.75 4.20 l2.35 3.65 -0.05 5.50 c-0.05 5.65 -0.05 5.70 -3.15 13.75 -0.60 1.50 -1.30 2.85 -1.55 2.90 -0.30 0.10 -0.50 0.45 -0.50 0.80 0 0.30 -0.80 1.75 -1.75 3.25 -0.95 1.45 -1.75 2.80 -1.75 2.95 0 0.20 -0.70 1.05 -1.50 1.95 -0.85 0.90 -1.50 1.80 -1.50 2 0 0.50 -11.10 11.90 -15 15.45 -6.40 5.80 -20.40 15.80 -26.90 19.20 -1.55 0.85 -3.20 1.75 -3.60 2 -1.60 1.05 -8.15 4.50 -8.60 4.50 -0.25 0 -2.55 0.90 -5.05 2.05 -2.55 1.10 -5.25 2.35 -6.10 2.70 -0.80 0.35 -3.50 1.25 -6 2 -2.45 0.75 -4.85 1.55 -5.30 1.75 -3 1.50 -19.95 3.85 -24.05 3.30 l-2.40 -0.35 0 35.55 0 35.50 71.65 0.05 c39.35 0 72.35 0.10 73.30 0.25 2.80 0.35 8.20 1.65 10.30 2.50 3.20 1.25 7.25 3.20 7.90 3.70 1.10 0.95 4.40 3 4.75 3 0.90 0 10.15 10.10 12.40 13.50 2.90 4.40 3.70 6.05 5.70 11.95 2.90 8.50 3 9.60 3 46.45 l0 33.60 18.40 0 c11.25 0 19.10 0.20 20.25 0.55 3.05 0.85 5.20 3.10 5.85 6.10 0.40 1.85 0.50 16.30 0.40 49.95 l-0.15 47.35 -2.15 2.20 c-3.20 3.25 -3.95 3.35 -24.60 3.35 l-18 0 0 19.40 c0 22.60 -0.55 27.75 -3.60 35.35 -0.55 1.40 -1.35 3.40 -1.80 4.50 -0.40 1.10 -1.05 2.25 -1.35 2.50 -0.30 0.30 -1.05 1.55 -1.70 2.85 -0.60 1.35 -1.35 2.50 -1.60 2.70 -0.25 0.15 -1.35 1.50 -2.45 2.95 -4.25 5.75 -14.55 12.70 -22.70 15.30 -8 2.60 1.65 2.45 -163.70 2.40 -84.60 -0.05 -155 -0.25 -156.40 -0.45z m291.30 -27.20 c1.50 -0.20 3.20 -0.55 3.75 -0.75 0.55 -0.25 2 -0.75 3.25 -1.10 2.05 -0.60 6.30 -2.55 8.75 -4.10 2.40 -1.45 7.75 -5.90 8.80 -7.35 0.65 -0.85 1.95 -2.40 2.85 -3.45 0.85 -1.05 1.60 -2.20 1.60 -2.50 0 -0.30 0.35 -0.70 0.75 -0.85 0.40 -0.20 0.75 -0.75 0.75 -1.25 0 -0.50 0.25 -0.95 0.50 -0.95 0.30 0 0.50 -0.40 0.50 -0.85 0 -0.45 0.35 -1.20 0.75 -1.65 1.20 -1.30 3.30 -9.35 3.80 -14.50 0.55 -5.65 0.85 -58 0.35 -58 -0.20 0 -0.55 0.60 -0.70 1.40 -0.20 0.75 -1.20 3.10 -2.25 5.20 -1.10 2.15 -1.95 4.20 -1.95 4.60 0 0.40 -0.20 0.80 -0.45 0.90 -0.25 0.10 -1.30 1.80 -2.35 3.85 -2.65 5.05 -2.90 5.45 -4.40 7 -0.70 0.75 -1.30 1.55 -1.30 1.75 0 0.50 -4.30 5.60 -8 9.50 -8.60 9.10 -24.15 18.65 -35.75 22 -0.25 0.10 -0.85 0.30 -1.25 0.45 -1.35 0.50 -9.15 2.30 -12.50 2.90 -4.35 0.75 -18.20 0.75 -23.50 0 -4.70 -0.70 -14.90 -3.20 -17.25 -4.25 -0.80 -0.40 -2.60 -1.10 -4 -1.55 -2.65 -0.85 -9.30 -4.05 -9.75 -4.65 -0.35 -0.50 -6.30 -4.10 -6.75 -4.10 -1.15 0 -16.05 -14.20 -18.95 -18 -1.95 -2.65 -5.60 -8.10 -8.35 -12.60 -0.75 -1.20 -1.95 -3.60 -2.70 -5.40 -0.75 -1.80 -1.75 -4.05 -2.25 -5 -2.90 -5.65 -5.85 -18.70 -6.50 -28.75 -1 -15.45 -1.55 -21.05 -2.55 -25.15 -0.50 -2.30 -0.95 -4.70 -0.95 -5.35 0 -0.65 -0.20 -1.35 -0.50 -1.50 -0.25 -0.15 -0.50 -0.85 -0.50 -1.50 0 -0.65 -0.20 -1.35 -0.50 -1.50 -0.25 -0.15 -0.50 -0.85 -0.50 -1.50 0 -0.65 -0.20 -1.35 -0.50 -1.50 -0.30 -0.15 -0.50 -0.70 -0.50 -1.15 0 -1.10 -3.10 -8.60 -4.40 -10.75 -0.55 -0.85 -1.75 -2.95 -2.60 -4.60 -0.90 -1.65 -2.10 -3.55 -2.70 -4.25 -0.65 -0.70 -1.95 -2.50 -2.95 -4.05 -1.90 -2.95 -15.10 -16.45 -16.10 -16.45 -0.30 0 -1.20 -0.65 -2 -1.50 -0.80 -0.80 -1.70 -1.50 -2 -1.50 -0.35 0 -1 -0.45 -1.50 -1 -0.50 -0.55 -1.10 -1 -1.35 -1 -0.25 0 -1.20 -0.55 -2.05 -1.20 -1.70 -1.30 -10.30 -5.70 -12.35 -6.35 -0.70 -0.20 -2.50 -0.85 -4 -1.45 -2.75 -1.05 -6.05 -1.90 -12.75 -3.35 -5.65 -1.20 -21.15 -1.45 -27.35 -0.45 -7.05 1.15 -10.40 1.90 -10.70 2.40 -0.15 0.20 -0.90 0.40 -1.70 0.40 -0.80 0 -2.30 0.35 -3.35 0.80 -1.05 0.45 -2.55 1.10 -3.40 1.40 -7.85 3.25 -16.05 7.90 -21.60 12.40 -4.35 3.55 -15.15 14.30 -15.15 15.15 0 0.35 -0.45 1 -1.05 1.55 -1.20 1.10 -3.95 5.05 -3.95 5.70 0 0.25 -0.30 0.65 -0.60 0.85 -0.80 0.50 -1.35 1.50 -4.70 8.25 -3.10 6.15 -4.80 10.75 -6.55 17.40 -2.85 10.90 -2.80 9.90 -3 61.25 -0.20 46.55 0.05 58.20 1.40 59.05 0.25 0.15 0.45 0.80 0.45 1.45 0 0.65 0.25 1.35 0.50 1.50 0.30 0.15 0.50 0.70 0.50 1.20 0 1.35 3.30 7.80 5.45 10.75 5.60 7.55 13.45 13.35 21.45 15.90 7.40 2.35 3.25 2.30 144.60 2.15 73.55 -0.05 135 -0.30 136.50 -0.45z m-40.10 -88 c1.20 -0.15 2.45 -0.45 2.75 -0.70 0.35 -0.30 1.40 -0.60 2.35 -0.75 1.45 -0.15 5.85 -2.20 10.20 -4.70 1.60 -0.90 9.80 -9.25 9.80 -9.95 0 -0.30 0.35 -0.85 0.80 -1.25 1.40 -1.15 4.55 -8.10 5.65 -12.60 1.70 -6.65 1.65 -17.10 -0.10 -21.35 -0.15 -0.40 -0.65 -2 -1.05 -3.50 -1.65 -5.75 -7.70 -14.65 -11.90 -17.55 -1.35 -0.90 -2.40 -1.80 -2.40 -2 0 -0.20 -0.45 -0.55 -1.05 -0.70 -0.55 -0.20 -2.05 -1.05 -3.30 -1.85 -1.20 -0.85 -4.30 -2.20 -6.80 -3 -4.15 -1.35 -5.20 -1.50 -11.10 -1.50 -5.05 0 -7.35 0.25 -10.25 1.10 -2.05 0.55 -4.15 1.10 -4.60 1.25 -0.95 0.20 -7.25 3.85 -8.40 4.85 -5.90 5.05 -9.15 8.70 -10.85 12.15 -1.25 2.60 -2.20 4.35 -2.65 4.75 -0.55 0.55 -2.50 8.40 -2.90 12 -0.45 3.55 -0.10 11 0.65 14.25 0.60 2.60 1.85 6.10 3 8.25 0.40 0.70 1.20 2.25 1.75 3.45 1.50 3 5.85 8.40 7.85 9.60 0.90 0.55 2.20 1.70 2.85 2.50 0.70 0.85 1.50 1.40 1.75 1.25 0.25 -0.15 0.75 0.05 1.10 0.50 0.35 0.45 1.70 1.30 3.05 2 6.80 3.45 14.10 4.55 23.80 3.50z"/>
  <path d="M174.50 396.55 c-5.25 -0.70 -14.60 -4.60 -17.50 -7.25 -0.70 -0.65 -1.90 -1.55 -2.65 -2.05 -3.45 -2.20 -10.10 -12.30 -11.80 -18 -0.35 -1.10 -0.80 -2.45 -1.05 -3 -0.20 -0.55 -0.65 -3 -0.90 -5.50 -1.95 -17 6.90 -34.30 21.35 -41.65 2.10 -1.05 4.80 -2.25 6.05 -2.60 1.25 -0.40 2.50 -0.85 2.80 -1.10 0.85 -0.65 12.55 -0.90 15.45 -0.40 3.45 0.65 9.75 2.65 9.75 3.15 0 0.20 0.45 0.35 0.95 0.35 0.55 0 1.15 0.25 1.35 0.55 0.15 0.30 1.15 0.95 2.20 1.40 2.45 1.10 7 5.35 10.55 9.80 2.65 3.35 5.55 8.95 7.10 13.80 1.30 3.80 1.85 10.95 1.30 15.85 -0.50 4.45 -2.75 12.60 -3.65 13.20 -0.30 0.20 -0.35 0.50 -0.20 0.65 0.20 0.20 -0.35 1.25 -1.15 2.40 -0.80 1.10 -1.45 2.25 -1.45 2.60 0 0.30 -0.65 1.20 -1.50 2 -0.80 0.80 -1.50 1.70 -1.50 2.05 0 0.80 -6.25 6.40 -8.55 7.60 -0.65 0.35 -2.50 1.40 -4.10 2.35 -1.60 0.95 -3.70 1.85 -4.75 2.05 -1 0.20 -2.60 0.65 -3.45 1.05 -1.95 0.80 -10.80 1.20 -14.65 0.70z"/>
 </g>
</svg>